{"title":"Bhooter Bhobishyot (2012) - Bengali - Original  DVD Rip","uid":7278283,"size":735238387,"categoryP":"video","categoryS":"movies","magnet":"?xt=urn:btih:12afccad6dc55ea1b46cb147e7ff2ed03c95e9b2&amp;dn=Bhooter+Bhobishyot+%282012%29+-+Bengali+-+Original++DVD+Rip&amp;tr=udp%3A%2F%2Ftracker.openbittorrent.com%3A80&amp;tr=udp%3A%2F%2Fopen.demonii.com%3A1337&amp;tr=udp%3A%2F%2Ftracker.coppersurfer.tk%3A6969&amp;tr=udp%3A%2F%2Fexodus.desync.com%3A6969","seeders":0,"leechers":1,"uploader":"fox2433","files":-1,"time":1337360625,"description":"\n\n\nNote : Original DVD Is Out Now ! No Watermark ! Enjoy !\n\n\n\nScreens :\n\n\n &lt;a href=&quot;\nhttp://www.shotpix.com/images/17993600647320915175.jpg&quot; rel=&quot;nofollow&quot; target=&quot;_NEW&quot;&gt;\nhttp://www.shotpix.com/images/17993600647320915175.jpg&lt;/a&gt;\n &lt;a href=&quot;\nhttp://www.shotpix.com/images/32674649990213901380.jpeg&quot; rel=&quot;nofollow&quot; target=&quot;_NEW&quot;&gt;\nhttp://www.shotpix.com/images/32674649990213901380.jpeg&lt;/a&gt;\n &lt;a href=&quot;\nhttp://i.imgur.com/RiFZ5.jpg&quot; rel=&quot;nofollow&quot; target=&quot;_NEW&quot;&gt;\nhttp://i.imgur.com/RiFZ5.jpg&lt;/a&gt;\n &lt;a href=&quot;\nhttp://i.imgur.com/BAZQV.jpg&quot; rel=&quot;nofollow&quot; target=&quot;_NEW&quot;&gt;\nhttp://i.imgur.com/BAZQV.jpg&lt;/a&gt;\n\n\n\nExtra Screen Shots :\n\n\n &lt;a href=&quot;\nhttp://www.shotpix.com/images/92279518482867100107.jpg&quot; rel=&quot;nofollow&quot; target=&quot;_NEW&quot;&gt;\nhttp://www.shotpix.com/images/92279518482867100107.jpg&lt;/a&gt;\n &lt;a href=&quot;\nhttp://www.shotpix.com/images/09218895492192922675.jpg&quot; rel=&quot;nofollow&quot; target=&quot;_NEW&quot;&gt;\nhttp://www.shotpix.com/images/09218895492192922675.jpg&lt;/a&gt;\n &lt;a href=&quot;\nhttp://www.shotpix.com/images/35444444536772994150.jpg&quot; rel=&quot;nofollow&quot; target=&quot;_NEW&quot;&gt;\nhttp://www.shotpix.com/images/35444444536772994150.jpg&lt;/a&gt;\n\n\n\nMedia Info :\n\n\n\nFormat                           : AVI\nFormat/Info                      : Audio Video Interleave\nFile size                        : 700 MiB\nDuration                         : 1h 59mn\nOverall bit rate                 : 816 Kbps\n\nVideo\nID                               : 0\nFormat                           : MPEG-4 Visual\nFormat settings, GMC             : No warppoints\nFormat settings, Matrix          : Custom\nCodec ID                         : XVID\nCodec ID/Hint                    : XviD\nDuration                         : 1h 59mn\nBit rate                         : 698 Kbps\nWidth                            : 624 pixels\nHeight                           : 272 pixels\nDisplay aspect ratio             : 2.25:1\nFrame rate                       : 25.000 fps\nColor space                      : YUV\nChroma subsampling               : 4:2:0\nBit depth                        : 8 bits\nScan type                        : Progressive\nCompression mode                 : Lossy\nBits/(Pixel*Frame)               : 0.165\nStream size                      : 599 MiB (86%)\n\nAudio\nID                               : 1\nFormat                           : MPEG Audio\nFormat version                   : Version 1\nFormat profile                   : Layer 3\nMode                             : Joint stereo\nMode extension                   : MS Stereo\nCodec ID                         : 55\nCodec ID/Hint                    : MP3\nDuration                         : 1h 59mn\nBit rate mode                    : Variable\nBit rate                         : 105 Kbps\nNominal bit rate                 : 128 Kbps\nChannel(s)                       : 2 channels\nSampling rate                    : 48.0 KHz\nCompression mode                 : Lossy\nStream size                      : 90.1 MiB (13%)\nAlignment                        : Aligned on interleaves\nInterleave, duration             : 24 ms (0.60 video frame)\n\n\n\n\n","torrent":{"xt":"urn:btih:12afccad6dc55ea1b46cb147e7ff2ed03c95e9b2","amp;dn":"Bhooter+Bhobishyot+%282012%29+-+Bengali+-+Original++DVD+Rip","amp;tr":["udp%3A%2F%2Ftracker.openbittorrent.com%3A80","udp%3A%2F%2Fopen.demonii.com%3A1337","udp%3A%2F%2Ftracker.coppersurfer.tk%3A6969","udp%3A%2F%2Fexodus.desync.com%3A6969"],"infoHash":"12afccad6dc55ea1b46cb147e7ff2ed03c95e9b2","infoHashBuffer":{"type":"Buffer","data":[18,175,204,173,109,197,94,161,180,108,177,71,231,255,46,208,60,149,233,178]},"announce":[],"urlList":[]}}